<?xml version="1.0" encoding="UTF-8"?>
<svg id="Capa_1" data-name="Capa 1" xmlns="http://www.w3.org/2000/svg" viewBox="0 0 246 246">
  <defs>
    <style>
      .cls-1 {
        fill: #175192;
      }

      .cls-2 {
        fill: none;
      }

      .cls-3 {
        fill: #409fc6;
      }

      .cls-4 {
        fill: #0b2964;
      }

      .cls-5 {
        fill: #f09f53;
      }
    </style>
  </defs>
  <rect class="cls-3" x="0" y="0" width="246" height="246" rx="123" ry="123"/>
  <path class="cls-5" d="M43.25,138.28v-28.89s0-8.31,0-8.31c0-3.18-.09-5.68.51-8.83,2.18-11.48,11.9-16.53,22.85-16.52,9.66,0,17.41,3.93,20.1,13.62,1.62-5.05,3.8-8.5,8.62-10.98,10.28-5.28,26.93-2.89,32.46,8.12,1.01,2.05,1.71,4.23,2.09,6.48.54,3.33.45,6.88.45,10.25v11.62s-16.3,0-16.3,0c.04-2.28.05-4.56.02-6.84-.02-4.37.17-8.86-3.06-12.36-3.37-3.64-9.91-3.77-13.48-.38-3.13,2.97-2.74,7.9-2.74,11.9v31.22c-5.16-.02-10.8-.11-15.95.02v-24.71c0-2.31-.02-4.72,0-6.99.07-5.46-.08-11.79-6.48-13.48-3.61-.95-7.12-.23-9.82,2.48-3.16,3.28-2.95,7.38-3,11.64l-.07,7.87c-.06,7.69-.27,15.75-.21,23.41-3.12-.11-6.24-.19-9.36-.23-2.05-.04-4.6-.17-6.62-.12Z"/>
  <path class="cls-4" d="M157.72,114.83h.24c.14,9.98.01,20.21.01,30.2v10.77c0,1.6.09,4.35-.03,5.89l-.2.08c.02,3.59-2.52,8.07-5.09,10.45-4.33,4.01-10.31,5.53-16.08,5.26-6.66-.33-12.96-1.84-17.57-7.01-5.07-5.68-5.04-11.71-5.04-18.79v-11.01s0-16.15,0-16.15c0-3.1-.08-6.64.07-9.69h16.29c.07,8.31-.07,16.68-.04,24.99.01,2.93-.21,10.15.31,12.67.4,2.04,1.4,3.92,2.87,5.39,3.08,3.04,8.12,3.36,11.82,1.25,4.56-2.6,4.23-8.74,4.23-13.33v-7.71c-.01-7.64.11-15.65-.04-23.25,2.59,0,5.71.07,8.26-.02Z"/>
  <path class="cls-1" d="M157.72,114.83h.24c.14,9.98.01,20.21.01,30.2v10.77c0,1.6.09,4.35-.03,5.89l-.2.08c-.13-2.59-.03-6.11-.03-8.76v-16.71s0-14.09,0-14.09c0-2.12-.12-5.35.02-7.37Z"/>
  <path class="cls-4" d="M157.96,114.84c2.68.02,5.36.02,8.05,0v24.08s-.01,6.95-.01,6.95c0,7.94.85,13.67,10.32,13.52,7.36-.12,8.89-7.67,8.95-13.57h16.01c0,2.62.07,6.04-.16,8.6-.5,5.58-2.64,11.59-6.7,15.58-4.96,4.98-11.7,6.15-18.46,6.08-4.94-.05-10.35-1.56-13.96-5.13-2.2-2.18-4.15-6.12-4.06-9.27.13-1.54.04-4.29.04-5.89v-10.77c0-9.99.12-20.22-.02-30.19Z"/>
  <path class="cls-5" d="M194.94,114.82c3.91.09,8.11.02,12.03.02-.23,4.89-.05,11.4-.05,16.39-.01,3.7,0,7.4.02,11.1h-28.51c.23-3.82.1-9.07.14-13.01.05-4.48.24-10.09.08-14.5,3.94.08,8.11.02,12.07.02-.22,3.25-.09,7.97-.05,11.31h4.3c-.06-3.76.07-7.58-.04-11.33Z"/>
  <path class="cls-4" d="M156.27,80.89c2.93-.2,4.65-.06,7.35,1.21,2.18,1.03,4.94,3.6,5.69,5.9,3.29-.08,6.98.03,10.3.07-1.46,5.16-3.71,7.29-9.21,7.18-.33,3.22-2.06,5.85-4.41,7.98-4.52,3.53-10.83,3.94-15.52.48-2.74-2.03-4.56-5.06-5.05-8.44-.5-3.43.42-6.92,2.55-9.66,2.02-2.62,5.01-4.31,8.3-4.71Z"/>
  <path class="cls-5" d="M48.32,143.34c6.94-.92,13.32,3.97,14.22,10.92.9,6.95-4.01,13.31-10.96,14.19-6.92.88-13.25-4.01-14.15-10.92-.9-6.92,3.97-13.26,10.89-14.18Z"/>
  <rect class="cls-2" width="246" height="246"/>
</svg>