<?xml version="1.0" standalone="no"?>
<!DOCTYPE svg PUBLIC "-//W3C//DTD SVG 20010904//EN"
 "http://www.w3.org/TR/2001/REC-SVG-20010904/DTD/svg10.dtd">
<svg version="1.0" xmlns="http://www.w3.org/2000/svg"
 width="1025.000000pt" height="1025.000000pt" viewBox="0 0 1025.000000 1025.000000"
 preserveAspectRatio="xMidYMid meet">
<metadata>
Created by potrace 1.16, written by Peter Selinger 2001-2019
</metadata>
<g transform="translate(0.000000,1025.000000) scale(0.100000,-0.100000)"
fill="#000000" stroke="none">
<path d="M6460 6876 c-236 -61 -393 -249 -407 -486 -11 -196 79 -377 241 -482
207 -134 504 -97 671 83 60 65 124 184 132 246 l5 41 72 4 c117 8 199 54 252
144 28 48 65 150 57 158 -4 3 -99 6 -212 6 l-206 0 -45 68 c-56 83 -156 161
-254 197 -88 33 -223 42 -306 21z"/>
<path d="M4746 5454 c-10 -26 -6 -1649 4 -1779 12 -149 38 -256 89 -360 117
-237 341 -390 651 -446 44 -8 145 -14 245 -14 203 1 297 20 440 90 151 74 252
169 325 307 36 68 70 161 71 197 0 15 6 3 14 -30 61 -249 236 -411 525 -485
105 -27 416 -27 538 -1 309 66 505 219 633 491 77 165 109 336 109 589 l0 167
-337 -2 -338 -3 -7 -90 c-12 -174 -52 -286 -131 -372 -76 -83 -178 -112 -325
-94 -177 22 -264 97 -309 263 -15 56 -17 152 -20 826 l-4 762 -346 -2 -346 -3
-4 -750 c-1 -412 -5 -772 -8 -798 -9 -71 -40 -164 -71 -209 -80 -115 -274
-169 -433 -119 -118 36 -209 131 -254 262 -22 63 -22 71 -24 774 -1 391 -2
740 -2 778 l-1 67 -339 0 c-300 0 -340 -2 -345 -16z"/>
</g>
</svg>
